HIERARCHY
ROOT Hips
{
  OFFSET -125.086 92.215 135.881
  CHANNELS 6 Xposition Yposition Zposition Zrotation Xrotation Yrotation
  JOINT LeftUpLeg
  {
    OFFSET 8.64259 1.95398 -2.38835
    CHANNELS 3 Zrotation Xrotation Yrotation
    JOINT LeftLeg
    {
      OFFSET 43.7702 0 0
      CHANNELS 3 Zrotation Xrotation Yrotation
      JOINT LeftFoot
      {
        OFFSET 40.6238 0 0
        CHANNELS 3 Zrotation Xrotation Yrotation
        JOINT LeftToeBase
        {
          OFFSET 12.7242 0 0
          CHANNELS 3 Zrotation Xrotation Yrotation
          End Site
          {
            OFFSET 0 0 0
          }
        }
      }
    }
  }
  JOINT RightUpLeg
  {
    OFFSET -8.2249 1.95398 -2.59336
    CHANNELS 3 Zrotation Xrotation Yrotation
    JOINT RightLeg
    {
      OFFSET 43.5653 0 0
      CHANNELS 3 Zrotation Xrotation Yrotation
      JOINT RightFoot
      {
        OFFSET 40.6238 0 0
        CHANNELS 3 Zrotation Xrotation Yrotation
        JOINT RightToeBase
        {
          OFFSET 12.7242 0 0
          CHANNELS 3 Zrotation Xrotation Yrotation
          End Site
          {
            OFFSET 0 0 0
          }
        }
      }
    }
  }
  JOINT Spine
  {
    OFFSET 0.165834 0.87714 6.61349
    CHANNELS 3 Zrotation Xrotation Yrotation
    JOINT Spine1
    {
      OFFSET 7.38963 1.71661e-005 0
      CHANNELS 3 Zrotation Xrotation Yrotation
      JOINT Spine2
      {
        OFFSET 11.9445 1.14441e-005 0
        CHANNELS 3 Zrotation Xrotation Yrotation
        JOINT Spine3
        {
          OFFSET 14.7254 4.19617e-005 0
          CHANNELS 3 Zrotation Xrotation Yrotation
          JOINT Spine4
          {
            OFFSET 10.9679 0 0
            CHANNELS 3 Zrotation Xrotation Yrotation
            JOINT RightShoulder
            {
              OFFSET 2.46616 -1.6653 3.69651
              CHANNELS 3 Zrotation Xrotation Yrotation
              JOINT RightArm
              {
                OFFSET 13.0012 0 0
                CHANNELS 3 Zrotation Xrotation Yrotation
                JOINT RightForeArm
                {
                  OFFSET 28.7848 1.52588e-005 0
                  CHANNELS 3 Zrotation Xrotation Yrotation
                  JOINT RightHand
                  {
                    OFFSET 26.5688 1.52588e-005 0
                    CHANNELS 3 Zrotation Xrotation Yrotation
                    End Site
                    {
                      OFFSET 0 0 0
                    }
                  }
                }
              }
            }
            JOINT LeftShoulder
            {
              OFFSET 2.38034 -1.29275 -3.7523
              CHANNELS 3 Zrotation Xrotation Yrotation
              JOINT LeftArm
              {
                OFFSET 16.3182 6.10352e-005 0
                CHANNELS 3 Zrotation Xrotation Yrotation
                JOINT LeftForeArm
                {
                  OFFSET 27.0901 0 0
                  CHANNELS 3 Zrotation Xrotation Yrotation
                  JOINT LeftHand
                  {
                    OFFSET 24.5451 1.52588e-005 0
                    CHANNELS 3 Zrotation Xrotation Yrotation
                    End Site
                    {
                      OFFSET 0 0 0
                    }
                  }
                }
              }
            }
            JOINT Neck
            {
              OFFSET 5.0226 -0.0266342 0
              CHANNELS 3 Zrotation Xrotation Yrotation
              JOINT Head
              {
                OFFSET 6.69363 2.86102e-005 0
                CHANNELS 3 Zrotation Xrotation Yrotation
                End Site
                {
                  OFFSET 0 0 0
                }
              }
            }
          }
        }
      }
    }
  }
}
MOTION
Frames:	9
Frame Time:	0.0416667
259.557 80.2318 -267.221 -101.897 -51.7836 -101.885 -105.016 -0.130924 101.402 79.5356 35.2784 -87.9621 33.8279 -21.7537 -25.1002 -23.8814 -9.54656 22.7054 -175.614 58.5096 76.5203 -79.6881 -54.602 -0.598324 -10.9234 9.10605 40.9576 -19.2643 -8.21527 29.1331 -0.884668 3.38731 -89.6441 20.1006 -1.53585 1.06367 8.42969 -1.48762 1.12878 -14.1085 -1.78406 0.551428 5.90417 -1.78406 0.551429 115.774 -20.6235 -49.8307 61.7014 -33.5962 41.6355 103.646 17.9033 -94.9702 -38.8331 11.7672 -38.2951 -57.9355 -24.2733 138.346 115.788 18.1583 -155.803 -117.705 -30.792 -32.3832 34.1988 -29.6292 -81.562 -62.3875 16.5966 -11.9483 -17.7232 7.4059 48.6937 
259.815 80.1697 -267.443 -101.964 -52.023 -101.895 -104.898 0.0642937 101.114 80.9648 35.4113 -89.0782 33.8609 -22.4659 -24.5831 -24.0388 -9.55948 22.6864 -175.553 58.4921 76.4017 -80.2402 -54.1755 -0.576437 -10.2976 8.91774 40.8921 -19.0758 -7.95177 28.7105 -0.908328 3.38771 -89.648 20.1015 -1.58421 1.06492 8.43076 -1.53581 1.13332 -14.1084 -1.83091 0.539186 5.90423 -1.83092 0.539193 115.815 -20.7209 -49.7939 61.7998 -33.7349 42.1181 105.607 17.0842 -95.8371 -38.2398 11.6035 -38.383 -57.8605 -24.4485 138.384 115.583 18.658 -155.612 -117.438 -31.0924 -31.8302 34.4142 -29.809 -81.5651 -62.1908 16.5927 -11.9294 -17.8685 7.34907 48.7042 
260.553 79.9938 -268.078 -102.184 -52.7367 -101.952 -104.602 0.596708 100.274 84.7265 35.6649 -92.0887 33.9184 -24.2749 -23.2608 -24.4826 -9.58104 22.6107 -175.385 58.412 76.0781 -81.8323 -52.919 -0.529072 -8.47614 8.40601 40.6908 -18.6133 -7.24327 27.5495 -0.979378 3.38876 -89.6582 20.1045 -1.72863 1.07478 8.43409 -1.67964 1.14982 -14.1082 -1.97171 0.505422 5.90439 -1.9717 0.505422 115.934 -21.0059 -49.688 62.0967 -34.1147 43.5292 110.615 14.6304 -97.88 -36.7032 11.0778 -38.3263 -57.6437 -24.9525 138.495 114.986 20.0588 -155.04 -116.643 -31.8975 -30.2448 35.0413 -30.3208 -81.5505 -61.6184 16.5814 -11.8706 -18.2911 7.18523 48.7312 
261.707 79.7187 -269.072 -102.603 -53.948 -102.115 -104.259 1.36081 98.9075 89.6359 35.8159 -96.2394 33.8518 -26.4376 -21.6649 -25.1489 -9.56991 22.433 -175.187 58.1269 75.6228 -84.342 -50.8802 -0.497253 -5.53139 7.69179 40.3591 -18.1223 -6.26246 25.8783 -1.10134 3.39006 -89.6714 20.1073 -1.97402 1.1012 8.43729 -1.92364 1.18703 -14.109 -2.21368 0.456786 5.90369 -2.21368 0.456795 116.128 -21.471 -49.5194 62.6068 -34.6543 45.8319 116.941 10.6454 -100.019 -34.8233 10.2138 -37.5659 -57.298 -25.7495 138.674 114 22.177 -154.059 -115.307 -33.0011 -27.7347 36.0594 -31.1166 -81.4591 -60.6967 16.5649 -11.7644 -18.9747 6.92577 48.765 
263.201 79.3557 -270.361 -103.323 -55.7055 -102.495 -104.043 2.23707 97.0636 94.5564 35.8059 -100.772 33.4623 -28.2407 -20.3248 -25.9451 -9.47634 22.106 -175.071 57.4664 75.3486 -87.6752 -47.9001 -0.565785 -1.50007 6.94669 39.9676 -17.8983 -5.18161 23.954 -1.28115 3.39415 -89.6827 20.1027 -2.33135 1.15566 8.43329 -2.27823 1.25718 -14.1179 -2.57085 0.401187 5.89479 -2.57084 0.401176 116.395 -22.1135 -49.2944 63.3487 -35.2418 49.0008 123.245 5.45085 -101.426 -33.3003 9.22661 -35.9528 -56.8353 -26.8024 138.916 112.605 24.8015 -152.615 -113.439 -34.1501 -24.4137 37.456 -32.141 -81.212 -59.4507 16.5468 -11.5983 -19.907 6.58346 48.7933 
264.961 78.9119 -271.88 -104.496 -58.0547 -103.243 -104.149 3.10743 94.8072 99.0408 35.71 -105.313 32.6587 -29.3815 -19.4476 -26.7497 -9.25228 21.5946 -175.238 56.1727 75.4494 -91.6113 -44.025 -0.779764 3.61032 6.40059 39.6976 -18.2241 -4.11652 21.9896 -1.52593 3.4062 -89.6887 20.0849 -2.81319 1.24761 8.41625 -2.75555 1.37028 -14.1427 -3.05796 0.343758 5.86996 -3.05798 0.343764 116.733 -22.9338 -49.0189 64.3242 -35.7381 52.9934 129.071 -0.566317 -101.703 -32.681 8.39293 -33.8317 -56.2659 -28.0744 139.218 110.76 27.7089 -150.637 -111.105 -35.0861 -20.4263 39.2221 -33.3304 -80.7237 -57.9052 16.5326 -11.3564 -21.0781 6.17218 48.8033 
266.915 78.3896 -273.564 -106.309 -60.9996 -104.503 -104.795 3.91634 92.2255 103.28 35.5293 -109.809 31.496 -29.9363 -18.912 -27.3971 -8.85055 20.8734 -175.909 54.0458 76.4922 -95.889 -39.0309 -1.15294 9.75423 6.43605 39.8626 -19.3775 -3.11245 20.1161 -1.83973 3.42771 -89.6924 20.0512 -3.42864 1.3723 8.38383 -3.36494 1.52199 -14.1871 -3.68238 0.277128 5.82552 -3.68239 0.277118 117.142 -23.9347 -48.6991 65.4888 -35.9869 57.7151 134.671 -7.09711 -100.664 -33.3357 7.92552 -31.7389 -55.599 -29.5292 139.58 108.421 30.6641 -148.047 -108.463 -35.5721 -15.9785 41.3462 -34.61 -79.9104 -56.087 16.5293 -11.0207 -22.4778 5.70756 48.7818 
269.006 77.7839 -275.355 -108.829 -64.4524 -106.216 -106.215 4.74791 89.474 107.774 35.0537 -114.269 30.0811 -30.1794 -18.4257 -27.6321 -8.21974 19.9192 -177.323 50.9605 79.0598 -100.017 -31.8305 -1.59752 16.5952 6.76307 41.2512 -21.6965 -2.1272 18.3426 -2.21626 3.45332 -89.7133 20.0126 -4.17637 1.48938 8.34726 -4.10677 1.67199 -14.2415 -4.43056 0.163019 5.77109 -4.43056 0.163013 117.624 -25.1189 -48.3411 66.722 -35.8386 62.9864 140.791 -13.8287 -98.0502 -35.5329 7.98609 -30.2082 -54.8429 -31.1303 140.001 105.565 33.4178 -144.782 -105.771 -35.4177 -11.3542 43.8069 -35.8934 -78.6994 -54.0272 16.5463 -10.5717 -24.0935 5.20753 48.7166 
271.214 77.0926 -277.231 -111.942 -68.2176 -108.13 -108.557 5.81409 86.5402 113.2 33.9231 -118.736 28.507 -30.415 -17.679 -27.031 -7.30954 18.7099 -179.535 47.0021 83.5332 -103.575 -25.0859 -2.02401 23.3379 11.0466 43.4046 -25.7487 -0.943932 16.4519 -2.63504 3.47328 -89.7792 19.9878 -5.03085 1.53794 8.32542 -4.95829 1.75832 -14.2881 -5.25987 -0.0492422 5.7245 -5.25988 -0.0492431 118.178 -26.4888 -47.9503 67.8193 -35.1842 68.5343 148.596 -20.2152 -93.3316 -39.4431 8.78965 -29.7707 -54.0037 -32.8433 140.485 102.222 35.7159 -140.817 -103.35 -34.504 -6.88964 46.5676 -37.0884 -77.0438 -51.7605 16.5942 -9.99104 -25.9085 4.69151 48.5974 
